<?xml version="1.0" encoding="utf-8"?>
<!-- Generator: Adobe Illustrator 24.1.2, SVG Export Plug-In . SVG Version: 6.00 Build 0)  -->
<svg version="1.1" id="Layer_1" xmlns="http://www.w3.org/2000/svg" xmlns:xlink="http://www.w3.org/1999/xlink" x="0px" y="0px"
	 viewBox="0 0 512 512" style="enable-background:new 0 0 512 512;" xml:space="preserve">
<style type="text/css">
	.st0{fill:#5A5A64;}
</style>
<path class="st0" d="M256,0C114.6,0,0,114.6,0,256s114.6,256,256,256s256-114.6,256-256S397.4,0,256,0z M126.2,313.9
	c7.5,7.2,16.4,10.7,26.9,10.7c19.4,0,31.1-10.4,35-31.1l52.7,3.9c-14.7,45.6-44.6,68.4-89.6,68.4c-19.7,0-36.4-3.9-50.1-11.8
	s-25.1-19.4-34-34.5s-13.4-33.2-13.4-54.3c0-31.4,9-56.7,26.9-76s40.9-28.9,69-28.9c25.4,0,47.2,9,65.3,26.9
	c18.2,17.9,27.2,46.5,27.2,85.6h-127c-0.1,3.5-0.2,6.6-0.2,9.2C115,296.1,118.7,306.7,126.2,313.9z M392.1,361.7V251
	c0-13.4-0.5-22.6-1.6-27.5c-1-4.9-3.6-9.1-7.6-12.6c-4-3.4-9.1-5.2-15.2-5.2c-20.4,0-30.7,15.1-30.7,45.3v110.7h-58.2V164.5H333
	v33.4c9-15.9,17.8-26.1,26.6-30.7c8.7-4.6,18.2-6.8,28.3-6.8c18.8,0,33.9,5,45.3,15.1c11.5,10.1,17.2,29.9,17.2,59.5v126.8
	L392.1,361.7L392.1,361.7z M151.7,198.4c-21.9,0-34.1,13.5-36.7,40.6h70.1C183.3,212,172.1,198.4,151.7,198.4z"/>
</svg>
