<?xml version="1.0" encoding="utf-8"?>
<!-- Generator: Adobe Illustrator 24.1.2, SVG Export Plug-In . SVG Version: 6.00 Build 0)  -->
<svg version="1.1" id="Layer_1" xmlns="http://www.w3.org/2000/svg" xmlns:xlink="http://www.w3.org/1999/xlink" x="0px" y="0px"
	 viewBox="0 0 512 512" style="enable-background:new 0 0 512 512;" xml:space="preserve">
<path d="M256,0C114.6,0,0,114.6,0,256s114.6,256,256,256s256-114.6,256-256S397.4,0,256,0z M208.7,218.2c-11.9,0-21.1,1.8-27.6,5.5
	c-6.6,3.6-11.9,10.2-16.1,19.6c-4.2,9.4-6.3,22.2-6.3,38.2v80.3h-56.4V164.5h53.3v36.7c8.2-27.3,22.4-41,42.6-41
	c2.9,0,6.4,0.2,10.5,0.6V218.2z M409.7,361.7h-53.9v-33.6c-10.2,25.1-29.6,37.7-58.2,37.7c-14.8,0-26.2-2.8-34.2-8.3
	c-7.9-5.5-13.6-13.1-17.1-22.7c-3.5-9.6-5.2-23.4-5.2-41.5V164.5h56.4v128.9c0,17.7,7.3,26.6,21.9,26.6c7.4,0,13.9-2.1,19.3-6.3
	c5.5-4.2,9-8.8,10.4-13.6c1.5-4.8,2.2-13.1,2.2-24.8V164.5h58.2V361.7z"/>
</svg>
