<?xml version="1.0" encoding="utf-8"?>
<!-- Generator: Adobe Illustrator 24.1.2, SVG Export Plug-In . SVG Version: 6.00 Build 0)  -->
<svg version="1.1" id="Layer_1" xmlns="http://www.w3.org/2000/svg" xmlns:xlink="http://www.w3.org/1999/xlink" x="0px" y="0px"
	 viewBox="0 0 512 512" style="enable-background:new 0 0 512 512;" xml:space="preserve">
<style type="text/css">
	.st0{fill:#5A5A64;}
</style>
<path class="st0" d="M331.7,304.1c0,6.9,2.1,12.9,6.4,17.9s10.4,7.5,18.3,7.5c10.3,0,18.9-4.3,25.8-12.8s10.4-19,10.4-31.5v-18
	C352,271.2,331.7,283.5,331.7,304.1z M256,0C114.6,0,0,114.6,0,256s114.6,256,256,256s256-114.6,256-256S397.4,0,256,0z
	 M234.2,361.7h-53.9v-33.6c-10.2,25.1-29.6,37.7-58.2,37.7c-14.8,0-26.2-2.8-34.2-8.3c-7.9-5.5-13.6-13.1-17.1-22.7
	s-5.2-23.4-5.2-41.5V164.5H122v128.9c0,17.7,7.3,26.6,21.9,26.6c7.4,0,13.9-2.1,19.3-6.3c5.5-4.2,9-8.8,10.4-13.6
	c1.5-4.8,2.2-13.1,2.2-24.8V164.5H234v197.2H234.2z M397.9,361.7c-1.8-7.8-2.7-18.1-2.7-30.9c-9.9,14.1-19.7,23.4-29.5,28
	s-21,6.9-33.4,6.9c-18.5,0-33.4-5-44.8-15s-17.1-23.5-17.1-40.4c0-12.4,3.3-23.8,9.9-34.2c6.6-10.4,17.3-18.6,32-24.5
	s41.5-10.3,80.3-13.2v-11.3c0-19.1-9.5-28.7-28.6-28.7c-20.4,0-31.7,9.6-34.1,28.7l-53.7-5.1c3.5-22.4,14.1-38.3,31.8-47.7
	c17.7-9.4,37.8-14.1,60.2-14.1c13.4,0,26,1.6,37.9,4.7c11.8,3.1,21.1,7.8,27.7,14.1s11.1,12.9,13.5,19.8c2.3,7,3.5,19.1,3.5,36.4
	v89.5c0,17.2,1.2,29.5,3.5,36.9h-56.4V361.7z"/>
</svg>
